<svg xmlns="http://www.w3.org/2000/svg" viewBox="0 0 843.37 576.67"><defs><style>.cls-1{fill:#fff;}</style></defs><g id="Layer_2" data-name="Layer 2"><g id="Layer_1-2" data-name="Layer 1"><polygon class="cls-1" points="327.81 10.39 183.08 385.47 15.93 512.71 195.07 10.39 327.81 10.39"/><path class="cls-1" d="M843.37,10.39,763.08,82.15c-10.31-21.48-23.66-39.45-39.58-53A393,393,0,0,1,843.37,10.39Z"/><path class="cls-1" d="M322.82,430.94h0c-.17-.7-.33-1.39-.48-2.09C322.49,429.55,322.66,430.25,322.82,430.94Z"/><path class="cls-1" d="M678.43,143.8c-13.55-29.87-37.56-48-69.07-48.75C641,94.34,665.08,112.74,678.43,143.8Z"/><path class="cls-1" d="M543.19,113.05l-49.11,37.58A200.27,200.27,0,0,1,543.19,113.05Z"/><path class="cls-1" d="M323.88,435.29c-.38-1.43-.73-2.88-1.07-4.34-.17-.7-.33-1.39-.48-2.09.16.69.33,1.39.49,2.08C323.16,432.4,323.51,433.86,323.88,435.29Z"/><path class="cls-1" d="M495.14,568.67c-86.32,5.84-149.7-48.41-171.26-133.38C345.45,519.53,408.65,568.42,495.14,568.67Z"/><path class="cls-1" d="M543.19,113.05l-49.11,37.58A200.27,200.27,0,0,1,543.19,113.05Z"/><path class="cls-1" d="M323.88,435.29c-.38-1.43-.73-2.88-1.07-4.34-.17-.7-.33-1.39-.48-2.09.16.69.33,1.39.49,2.08C323.16,432.4,323.51,433.86,323.88,435.29Z"/><path class="cls-1" d="M495.14,568.67c-86.32,5.84-149.7-48.41-171.26-133.38C345.45,519.53,408.65,568.42,495.14,568.67Z"/><path class="cls-1" d="M543.19,113.05l-49.11,37.58A200.27,200.27,0,0,1,543.19,113.05Z"/><path class="cls-1" d="M323.88,435.29c-.38-1.43-.73-2.88-1.07-4.34-.17-.7-.33-1.39-.48-2.09.16.69.33,1.39.49,2.08C323.16,432.4,323.51,433.86,323.88,435.29Z"/><path class="cls-1" d="M495.14,568.67c-86.32,5.84-149.7-48.41-171.26-133.38C345.45,519.53,408.65,568.42,495.14,568.67Z"/><path class="cls-1" d="M776,185l-87.93,60.23c6.11-40.22,2.24-75.31-9.64-101.44C665.08,112.74,641,94.34,609.36,95.05a91.72,91.72,0,0,0-13.78.76,152.8,152.8,0,0,0-52.39,17.24C526.06,122.21,330,269.71,330,269.71,368.24,122.52,487.64,8.58,608,.43c40.66-2.75,76.24,7.83,104.74,28.68,18.6,13.59,35.83,30.73,46.24,53C778.1,123.11,778.64,164.23,776,185Z"/><path class="cls-1" d="M678.43,143.8c-13.55-29.87-37.56-48-69.07-48.75C641,94.34,665.08,112.74,678.43,143.8Z"/><path class="cls-1" d="M765.87,330.51C718.34,470.73,637.94,577.1,495.14,576.67c-86.49-.25-149.69-49.14-171.26-133.38-.37-1.43-.72-2.89-1.06-4.35-.16-.69-.33-1.39-.49-2.08.15.7.31,1.39.48,2.09L166.26,565.36H0l173-139.7,173.14-139.8,147.93-113C605.68,87.05,646.27,103,678.43,151.8L426.52,355.21l-14.29,11.54c-.53,73.65,36.53,122.11,95.36,114.54,59.79-7.7,123.54-70.89,158-150.78Z"/></g></g></svg>